<svg width="30" height="30" viewBox="0 0 30 30" fill="none" xmlns="http://www.w3.org/2000/svg">
<path d="M15.3124 26.4646L14.9374 26.3021C9.04995 23.6896 2.78745 18.5646 2.81245 11.9896C2.82495 8.11461 4.97495 5.00211 8.41245 3.90211C11.05 3.05211 13.4624 3.68961 15.3124 5.70211C17.1624 3.68961 19.5749 3.05211 22.2124 3.90211C25.6499 5.01461 27.7999 8.11461 27.8124 12.0021C27.8499 18.5646 21.5749 23.6896 15.6874 26.3021L15.3124 26.4646ZM10.625 5.40211C10.1 5.40211 9.56245 5.48961 8.98745 5.67711C5.82495 6.68961 4.68745 9.61461 4.68745 12.0021C4.66245 17.5271 10.3125 22.0896 15.3124 24.4021C20.3124 22.0896 25.9624 17.5271 25.9374 12.0021C25.9374 9.61461 24.7874 6.70211 21.6374 5.67711C19.3999 4.95211 17.5374 5.65211 16.0874 7.72711L15.3124 8.82711L14.5374 7.72711C13.4624 6.17711 12.15 5.38961 10.625 5.38961V5.40211Z" fill="black"/>
</svg>
